<?xml version="1.0" encoding="UTF-8" standalone="no"?>
<!-- Created with Inkscape (http://www.inkscape.org/) -->

<svg
   width="210mm"
   height="297mm"
   viewBox="0 0 210 297"
   version="1.1"
   id="svg5"
   inkscape:version="1.2.1 (9c6d41e, 2022-07-14)"
   sodipodi:docname="Reto5.svg"
   xmlns:inkscape="http://www.inkscape.org/namespaces/inkscape"
   xmlns:sodipodi="http://sodipodi.sourceforge.net/DTD/sodipodi-0.dtd"
   xmlns="http://www.w3.org/2000/svg"
   xmlns:svg="http://www.w3.org/2000/svg">
  <sodipodi:namedview
     id="namedview7"
     pagecolor="#ffffff"
     bordercolor="#666666"
     borderopacity="1.0"
     inkscape:showpageshadow="2"
     inkscape:pageopacity="0.0"
     inkscape:pagecheckerboard="0"
     inkscape:deskcolor="#d1d1d1"
     inkscape:document-units="mm"
     showgrid="false"
     inkscape:zoom="0.70199214"
     inkscape:cx="-28.490347"
     inkscape:cy="532.05724"
     inkscape:window-width="1866"
     inkscape:window-height="1016"
     inkscape:window-x="0"
     inkscape:window-y="0"
     inkscape:window-maximized="1"
     inkscape:current-layer="layer1" />
  <defs
     id="defs2" />
  <g
     inkscape:label="Capa 1"
     inkscape:groupmode="layer"
     id="layer1">
    <path
       style="fill:#008000;stroke:#000000;stroke-width:0.13938px;stroke-linecap:butt;stroke-linejoin:miter;stroke-opacity:1"
       d="m 44.278328,39.842039 c 0.0877,-1.42689 -29.23719,-33.3520195 7.1943,-32.4643195 36.43149,0.8877 6.26193,31.3083995 8.75089,32.3696995 2.48896,1.0613 28.27854,-31.0575495 27.59599,7.2261 -0.68254,38.28364 -24.82443,5.51957 -26.33876,7.98306 -1.51434,2.46349 26.78911,28.54091 -8.00867,31.07293 -34.79777,2.53202 -9.55672,-31.41031 -9.55672,-31.41031 0,0 -27.724815,30.19712 -28.378552,-7.31063 -0.653737,-37.5077495 28.653772,-6.03964 28.741522,-7.46653 z"
       id="path1003"
       sodipodi:nodetypes="zzzzzzczz" />
    <path
       style="fill:#cccccc;stroke:#000000;stroke-width:0.83700004;stroke-linecap:butt;stroke-linejoin:miter;stroke-opacity:1;stroke-dasharray:none"
       d="m 28.364139,119.45567 c 0,0 -13.030524,-20.677168 14.52082,-20.172818 27.55134,0.50436 11.87748,20.681738 11.87748,20.681738 0,0 17.39202,-18.14551 24.15756,-13.22726 6.76554,4.91825 11.20071,10.62951 8.72373,18.25413 -2.47698,7.62463 -9.64586,15.16949 -9.64586,15.16949 0,0 16.35823,3.36188 13.36854,14.22458 -2.98969,10.8627 -9.15213,11.87749 -9.15213,11.87749 0,0 -7.27598,2.9312 -15.58878,-2.97449 -8.3128,-5.90572 -10.10843,-13.46577 -10.10843,-13.46577 0,0 0.21116,13.12927 -5.4211,15.5189 -5.63225,2.38961 -8.29305,5.03598 -12.82772,2.05009 -4.53466,-2.98589 -6.92429,-12.94241 -5.98849,-15.80449 0.93579,-2.86209 -11.27515,8.27709 -11.27515,8.27709 0,0 -9.042751,5.90646 -11.8015311,-4.29692 -2.75878,-10.20338 11.2766611,-16.50938 11.2766611,-16.50938 0,0 -13.8918811,1.87159 -14.5329631,-7.93301 -0.641083,-9.80461 3.84953,-14.70464 6.9037851,-16.4228 3.054255,-1.71816 15.513578,4.75343 15.513578,4.75343 z"
       id="path1007" />
    <path
       style="fill:#ffd5d5;stroke:#000000;stroke-width:0.264583px;stroke-linecap:butt;stroke-linejoin:miter;stroke-opacity:1"
       d="m 140.00495,149.66751 c 0,0 -3.39259,-15.78186 -9.74662,-33.66915 -3.70786,-10.43802 -10.44467,-21.424045 -12.77951,-30.854585 -4.88721,-19.739652 -2.50958,-32.00636 8.98557,-9.464192 26.39797,51.766817 18.42558,28.357577 18.42558,28.357577 0,0 -23.9746,-86.515562 -6.453,-62.602799 17.5216,23.912763 20.9579,63.555359 20.9579,63.555359 0,0 -13.25641,-65.08653 -3.585,-77.453676 9.6714,-12.367149 10.00266,9.001517 10.00266,9.001517 l 2.19517,68.926239 c 0,0 0.71111,-71.741239 8.31985,-72.521546 7.60874,-0.780309 7.3084,15.68272 7.3084,15.68272 l -2.27182,36.874062 0.59489,29.893814 c 0,0 13.49933,-38.896152 20.44408,-36.574367 6.94474,2.321785 -12.17576,52.551537 -12.17576,52.551537 l -3.51285,11.71641 -9.59338,32.38573 -41.80979,1.37511 z"
       id="path2280"
       sodipodi:nodetypes="cssscscsccscccsccccc" />
    <path
       style="fill:#f4d7d7;stroke:#000000;stroke-width:0.264583px;stroke-linecap:butt;stroke-linejoin:miter;stroke-opacity:1"
       d="m 36.643564,286.88543 38.925597,-0.0972 c 0,0 15.464824,-38.45889 4.315251,-34.52201 -11.149571,3.93687 -15.832894,6.61053 -15.916812,3.00492 -0.08392,-3.60561 20.120171,-9.97028 20.120171,-9.97028 0,0 5.783114,0.19729 1.180769,-4.65976 -4.602348,-4.85705 6.616422,-3.98399 6.616422,-3.98399 L 80.089059,217.98128 c 0,0 5.612331,-11.46611 -1.47375,-20.25267 -7.086082,-8.78657 -28.119067,-13.12685 -35.318515,-11.56918 -7.199447,1.55768 -22.241725,12.06092 -20.754723,25.61178 1.487003,13.55086 14.101493,75.11422 14.101493,75.11422 z"
       id="path3008" />
    <ellipse
       style="fill:#ffffff;stroke:#000000;stroke-width:0.43700001;stroke-dasharray:none;stroke-opacity:1"
       id="path3062"
       cx="61.585453"
       cy="215.69704"
       rx="7.4880133"
       ry="6.3815951" />
    <ellipse
       style="fill:#008000;stroke:#000000;stroke-width:0.247927;stroke-dasharray:none;stroke-opacity:1"
       id="path3062-3"
       cx="64.736122"
       cy="215.63153"
       rx="3.7855408"
       ry="4.0630655" />
  </g>
</svg>
